<mxfile host="Electron" agent="Mozilla/5.0 (Macintosh; Intel Mac OS X 10_15_7) AppleWebKit/537.36 (KHTML, like Gecko) draw.io/26.0.4 Chrome/128.0.6613.186 Electron/32.2.5 Safari/537.36" version="26.0.4">
  <diagram name="Page-1" id="7roNWF1qpoUNGFxGU0f3">
    <mxGraphModel dx="2092" dy="941" grid="1" gridSize="10" guides="1" tooltips="1" connect="1" arrows="1" fold="1" page="1" pageScale="1" pageWidth="850" pageHeight="1100" math="0" shadow="0" adaptiveColors="none">
      <root>
        <mxCell id="0" />
        <mxCell id="1" parent="0" />
        <mxCell id="PQe1bKcJ9zIPUSs3W7Ri-1" value="" style="container=1;collapsible=0;expand=0;recursiveResize=0;html=1;whiteSpace=wrap;strokeColor=#1192E8;fillColor=none;strokeWidth=1" parent="1" vertex="1">
          <mxGeometry x="160" y="80" width="810" height="600" as="geometry" />
        </mxCell>
        <mxCell id="PQe1bKcJ9zIPUSs3W7Ri-5" value="" style="container=1;collapsible=0;expand=0;recursiveResize=0;html=1;whiteSpace=wrap;strokeColor=#1192E8;fillColor=none;strokeWidth=1" parent="PQe1bKcJ9zIPUSs3W7Ri-1" vertex="1">
          <mxGeometry y="40" width="810" height="560" as="geometry" />
        </mxCell>
        <mxCell id="PQe1bKcJ9zIPUSs3W7Ri-17" value="" style="container=1;collapsible=0;expand=0;recursiveResize=0;html=1;whiteSpace=wrap;strokeColor=#1192E8;fillColor=none;strokeWidth=1" parent="PQe1bKcJ9zIPUSs3W7Ri-5" vertex="1">
          <mxGeometry x="340" y="40" width="470" height="520" as="geometry" />
        </mxCell>
        <mxCell id="PQe1bKcJ9zIPUSs3W7Ri-18" value="Private Network" style="shape=rect;fillColor=none;aspect=fixed;resizable=0;labelPosition=right;verticalLabelPosition=middle;align=left;verticalAlign=middle;strokeColor=none;part=1;spacingLeft=5;fontSize=14;" parent="PQe1bKcJ9zIPUSs3W7Ri-17" vertex="1">
          <mxGeometry width="48" height="48" relative="1" as="geometry" />
        </mxCell>
        <mxCell id="PQe1bKcJ9zIPUSs3W7Ri-19" value="" style="fillColor=#1192E8;shape=mxgraph.ibm_cloud.network--enterprise;strokeColor=none;dashed=0;outlineConnect=0;html=1;labelPosition=center;verticalLabelPosition=bottom;verticalAlign=top;part=1;movable=0;resizable=0;rotatable=0;" parent="PQe1bKcJ9zIPUSs3W7Ri-18" vertex="1">
          <mxGeometry width="24" height="24" relative="1" as="geometry">
            <mxPoint x="12" y="12" as="offset" />
          </mxGeometry>
        </mxCell>
        <mxCell id="PQe1bKcJ9zIPUSs3W7Ri-20" value="" style="shape=rect;fillColor=#1192E8;aspect=fixed;resizable=0;labelPosition=right;verticalLabelPosition=middle;align=left;verticalAlign=middle;strokeColor=none;part=1;spacingLeft=5;fontSize=14;" parent="PQe1bKcJ9zIPUSs3W7Ri-17" vertex="1">
          <mxGeometry width="4" height="48" relative="1" as="geometry" />
        </mxCell>
        <mxCell id="PQe1bKcJ9zIPUSs3W7Ri-13" value="" style="container=1;collapsible=0;expand=0;recursiveResize=0;html=1;whiteSpace=wrap;strokeColor=#1192E8;fillColor=none;strokeWidth=1" parent="PQe1bKcJ9zIPUSs3W7Ri-5" vertex="1">
          <mxGeometry y="40" width="340" height="520" as="geometry" />
        </mxCell>
        <mxCell id="PQe1bKcJ9zIPUSs3W7Ri-14" value="Public Network" style="shape=rect;fillColor=none;aspect=fixed;resizable=0;labelPosition=right;verticalLabelPosition=middle;align=left;verticalAlign=middle;strokeColor=none;part=1;spacingLeft=5;fontSize=14;" parent="PQe1bKcJ9zIPUSs3W7Ri-13" vertex="1">
          <mxGeometry width="48" height="48" relative="1" as="geometry" />
        </mxCell>
        <mxCell id="PQe1bKcJ9zIPUSs3W7Ri-15" value="" style="fillColor=#1192E8;shape=mxgraph.ibm_cloud.network--public;strokeColor=none;dashed=0;outlineConnect=0;html=1;labelPosition=center;verticalLabelPosition=bottom;verticalAlign=top;part=1;movable=0;resizable=0;rotatable=0;" parent="PQe1bKcJ9zIPUSs3W7Ri-14" vertex="1">
          <mxGeometry width="24" height="24" relative="1" as="geometry">
            <mxPoint x="12" y="12" as="offset" />
          </mxGeometry>
        </mxCell>
        <mxCell id="PQe1bKcJ9zIPUSs3W7Ri-16" value="" style="shape=rect;fillColor=#1192E8;aspect=fixed;resizable=0;labelPosition=right;verticalLabelPosition=middle;align=left;verticalAlign=middle;strokeColor=none;part=1;spacingLeft=5;fontSize=14;" parent="PQe1bKcJ9zIPUSs3W7Ri-13" vertex="1">
          <mxGeometry width="4" height="48" relative="1" as="geometry" />
        </mxCell>
        <mxCell id="PQe1bKcJ9zIPUSs3W7Ri-111" value="" style="container=1;collapsible=0;expand=0;recursiveResize=0;html=1;whiteSpace=wrap;strokeColor=#FA4D56;fillColor=none;dashed=1;dashPattern=1 3;strokeWidth=2" parent="PQe1bKcJ9zIPUSs3W7Ri-13" vertex="1">
          <mxGeometry x="12" y="293" width="320" height="190" as="geometry" />
        </mxCell>
        <mxCell id="PQe1bKcJ9zIPUSs3W7Ri-112" value="Security Group" style="shape=rect;fillColor=none;aspect=fixed;resizable=0;labelPosition=right;verticalLabelPosition=middle;align=left;verticalAlign=middle;strokeColor=none;part=1;spacingLeft=5;fontSize=14;" parent="PQe1bKcJ9zIPUSs3W7Ri-111" vertex="1">
          <mxGeometry width="48" height="48" relative="1" as="geometry" />
        </mxCell>
        <mxCell id="PQe1bKcJ9zIPUSs3W7Ri-113" value="" style="fillColor=#FA4D56;shape=mxgraph.ibm_cloud.group--security;strokeColor=none;dashed=0;outlineConnect=0;html=1;labelPosition=center;verticalLabelPosition=bottom;verticalAlign=top;part=1;movable=0;resizable=0;rotatable=0;" parent="PQe1bKcJ9zIPUSs3W7Ri-112" vertex="1">
          <mxGeometry width="24" height="24" relative="1" as="geometry">
            <mxPoint x="12" y="12" as="offset" />
          </mxGeometry>
        </mxCell>
        <mxCell id="PQe1bKcJ9zIPUSs3W7Ri-55" value="Load Balancer" style="text;html=1;align=center;verticalAlign=middle;whiteSpace=wrap;rounded=0;" parent="PQe1bKcJ9zIPUSs3W7Ri-111" vertex="1">
          <mxGeometry x="-6" y="134" width="60" height="30" as="geometry" />
        </mxCell>
        <mxCell id="PQe1bKcJ9zIPUSs3W7Ri-53" value="" style="shape=rect;fillColor=#1192E8;aspect=fixed;resizable=0;labelPosition=center;verticalLabelPosition=bottom;align=center;verticalAlign=top;strokeColor=none;fontSize=14;rotation=-90;" parent="PQe1bKcJ9zIPUSs3W7Ri-13" vertex="1">
          <mxGeometry x="12" y="364" width="48" height="48" as="geometry" />
        </mxCell>
        <mxCell id="PQe1bKcJ9zIPUSs3W7Ri-54" value="" style="fillColor=#ffffff;strokeColor=none;dashed=0;outlineConnect=0;html=1;labelPosition=center;verticalLabelPosition=bottom;verticalAlign=top;part=1;movable=0;resizable=0;rotatable=0;shape=mxgraph.ibm_cloud.load-balancer--application;rotation=-90;" parent="PQe1bKcJ9zIPUSs3W7Ri-53" vertex="1">
          <mxGeometry width="24" height="24" relative="1" as="geometry">
            <mxPoint x="12" y="12" as="offset" />
          </mxGeometry>
        </mxCell>
        <mxCell id="PQe1bKcJ9zIPUSs3W7Ri-21" value="-1" style="container=1;collapsible=0;expand=0;recursiveResize=0;html=1;whiteSpace=wrap;strokeColor=#1192E8;fillColor=none;strokeWidth=1" parent="PQe1bKcJ9zIPUSs3W7Ri-13" vertex="1">
          <mxGeometry x="60" y="340" width="240" height="50" as="geometry" />
        </mxCell>
        <mxCell id="PQe1bKcJ9zIPUSs3W7Ri-22" value="alb-subnet" style="shape=rect;fillColor=none;aspect=fixed;resizable=0;labelPosition=right;verticalLabelPosition=middle;align=left;verticalAlign=middle;strokeColor=none;part=1;spacingLeft=5;fontSize=14;" parent="PQe1bKcJ9zIPUSs3W7Ri-21" vertex="1">
          <mxGeometry width="48" height="48" relative="1" as="geometry" />
        </mxCell>
        <mxCell id="PQe1bKcJ9zIPUSs3W7Ri-23" value="" style="fillColor=#1192E8;shape=mxgraph.ibm_cloud.ibm-cloud--subnets;strokeColor=none;dashed=0;outlineConnect=0;html=1;labelPosition=center;verticalLabelPosition=bottom;verticalAlign=top;part=1;movable=0;resizable=0;rotatable=0;" parent="PQe1bKcJ9zIPUSs3W7Ri-22" vertex="1">
          <mxGeometry width="24" height="24" relative="1" as="geometry">
            <mxPoint x="12" y="12" as="offset" />
          </mxGeometry>
        </mxCell>
        <mxCell id="PQe1bKcJ9zIPUSs3W7Ri-24" value="" style="shape=rect;fillColor=#1192E8;aspect=fixed;resizable=0;labelPosition=right;verticalLabelPosition=middle;align=left;verticalAlign=middle;strokeColor=none;part=1;spacingLeft=5;fontSize=14;" parent="PQe1bKcJ9zIPUSs3W7Ri-21" vertex="1">
          <mxGeometry width="4" height="48" relative="1" as="geometry" />
        </mxCell>
        <mxCell id="PQe1bKcJ9zIPUSs3W7Ri-9" value="" style="container=1;collapsible=0;expand=0;recursiveResize=0;html=1;whiteSpace=wrap;strokeColor=#1192E8;fillColor=none;strokeWidth=1" parent="PQe1bKcJ9zIPUSs3W7Ri-13" vertex="1">
          <mxGeometry x="60" y="390" width="240" height="50" as="geometry" />
        </mxCell>
        <mxCell id="PQe1bKcJ9zIPUSs3W7Ri-10" value="alb-subnet-2" style="shape=rect;fillColor=none;aspect=fixed;resizable=0;labelPosition=right;verticalLabelPosition=middle;align=left;verticalAlign=middle;strokeColor=none;part=1;spacingLeft=5;fontSize=14;" parent="PQe1bKcJ9zIPUSs3W7Ri-9" vertex="1">
          <mxGeometry width="48" height="48" relative="1" as="geometry" />
        </mxCell>
        <mxCell id="PQe1bKcJ9zIPUSs3W7Ri-11" value="" style="fillColor=#1192E8;shape=mxgraph.ibm_cloud.ibm-cloud--subnets;strokeColor=none;dashed=0;outlineConnect=0;html=1;labelPosition=center;verticalLabelPosition=bottom;verticalAlign=top;part=1;movable=0;resizable=0;rotatable=0;" parent="PQe1bKcJ9zIPUSs3W7Ri-10" vertex="1">
          <mxGeometry width="24" height="24" relative="1" as="geometry">
            <mxPoint x="12" y="12" as="offset" />
          </mxGeometry>
        </mxCell>
        <mxCell id="PQe1bKcJ9zIPUSs3W7Ri-12" value="" style="shape=rect;fillColor=#1192E8;aspect=fixed;resizable=0;labelPosition=right;verticalLabelPosition=middle;align=left;verticalAlign=middle;strokeColor=none;part=1;spacingLeft=5;fontSize=14;" parent="PQe1bKcJ9zIPUSs3W7Ri-9" vertex="1">
          <mxGeometry width="4" height="48" relative="1" as="geometry" />
        </mxCell>
        <mxCell id="8X_C14jSMLgq-pkSq3gb-5" value="" style="container=1;collapsible=0;expand=0;recursiveResize=0;html=1;whiteSpace=wrap;strokeColor=#FA4D56;fillColor=none;dashed=1;dashPattern=1 3;strokeWidth=2" parent="PQe1bKcJ9zIPUSs3W7Ri-13" vertex="1">
          <mxGeometry x="430" y="90" width="310" height="350" as="geometry" />
        </mxCell>
        <mxCell id="8X_C14jSMLgq-pkSq3gb-6" value="Security Group" style="shape=rect;fillColor=none;aspect=fixed;resizable=0;labelPosition=right;verticalLabelPosition=middle;align=left;verticalAlign=middle;strokeColor=none;part=1;spacingLeft=5;fontSize=14;" parent="8X_C14jSMLgq-pkSq3gb-5" vertex="1">
          <mxGeometry width="48" height="48" relative="1" as="geometry" />
        </mxCell>
        <mxCell id="8X_C14jSMLgq-pkSq3gb-7" value="" style="fillColor=#FA4D56;shape=mxgraph.ibm_cloud.group--security;strokeColor=none;dashed=0;outlineConnect=0;html=1;labelPosition=center;verticalLabelPosition=bottom;verticalAlign=top;part=1;movable=0;resizable=0;rotatable=0;" parent="8X_C14jSMLgq-pkSq3gb-6" vertex="1">
          <mxGeometry width="24" height="24" relative="1" as="geometry">
            <mxPoint x="12" y="12" as="offset" />
          </mxGeometry>
        </mxCell>
        <mxCell id="8X_C14jSMLgq-pkSq3gb-8" value="" style="container=1;collapsible=0;expand=0;recursiveResize=0;html=1;whiteSpace=wrap;strokeColor=#198038;fillColor=none;dashed=1;dashPattern=1 3;strokeWidth=2" parent="8X_C14jSMLgq-pkSq3gb-5" vertex="1">
          <mxGeometry x="20" y="50" width="270" height="270" as="geometry" />
        </mxCell>
        <mxCell id="8X_C14jSMLgq-pkSq3gb-9" value="Auto Scale Group (1~3 hosts)" style="shape=rect;fillColor=none;aspect=fixed;resizable=0;labelPosition=right;verticalLabelPosition=middle;align=left;verticalAlign=middle;strokeColor=none;part=1;spacingLeft=5;fontSize=14;" parent="8X_C14jSMLgq-pkSq3gb-8" vertex="1">
          <mxGeometry width="48" height="48" relative="1" as="geometry" />
        </mxCell>
        <mxCell id="8X_C14jSMLgq-pkSq3gb-10" value="" style="fillColor=#198038;shape=mxgraph.ibm_cloud.autoscaling;strokeColor=none;dashed=0;outlineConnect=0;html=1;labelPosition=center;verticalLabelPosition=bottom;verticalAlign=top;part=1;movable=0;resizable=0;rotatable=0;" parent="8X_C14jSMLgq-pkSq3gb-9" vertex="1">
          <mxGeometry width="24" height="24" relative="1" as="geometry">
            <mxPoint x="12" y="12" as="offset" />
          </mxGeometry>
        </mxCell>
        <mxCell id="8X_C14jSMLgq-pkSq3gb-99" value="" style="container=1;collapsible=0;expand=0;recursiveResize=0;html=1;whiteSpace=wrap;strokeColor=#1192E8;fillColor=none;strokeWidth=1" parent="8X_C14jSMLgq-pkSq3gb-8" vertex="1">
          <mxGeometry x="15" y="70" width="240" height="180" as="geometry" />
        </mxCell>
        <mxCell id="8X_C14jSMLgq-pkSq3gb-100" value="app-subnet" style="shape=rect;fillColor=none;aspect=fixed;resizable=0;labelPosition=right;verticalLabelPosition=middle;align=left;verticalAlign=middle;strokeColor=none;part=1;spacingLeft=5;fontSize=14;" parent="8X_C14jSMLgq-pkSq3gb-99" vertex="1">
          <mxGeometry width="48" height="48" relative="1" as="geometry" />
        </mxCell>
        <mxCell id="8X_C14jSMLgq-pkSq3gb-101" value="" style="fillColor=#1192E8;shape=mxgraph.ibm_cloud.ibm-cloud--subnets;strokeColor=none;dashed=0;outlineConnect=0;html=1;labelPosition=center;verticalLabelPosition=bottom;verticalAlign=top;part=1;movable=0;resizable=0;rotatable=0;" parent="8X_C14jSMLgq-pkSq3gb-100" vertex="1">
          <mxGeometry width="24" height="24" relative="1" as="geometry">
            <mxPoint x="12" y="12" as="offset" />
          </mxGeometry>
        </mxCell>
        <mxCell id="8X_C14jSMLgq-pkSq3gb-102" value="" style="shape=rect;fillColor=#1192E8;aspect=fixed;resizable=0;labelPosition=right;verticalLabelPosition=middle;align=left;verticalAlign=middle;strokeColor=none;part=1;spacingLeft=5;fontSize=14;" parent="8X_C14jSMLgq-pkSq3gb-99" vertex="1">
          <mxGeometry width="4" height="48" relative="1" as="geometry" />
        </mxCell>
        <mxCell id="8X_C14jSMLgq-pkSq3gb-103" value="" style="shape=rect;fillColor=#198038;aspect=fixed;resizable=0;labelPosition=center;verticalLabelPosition=bottom;align=center;verticalAlign=top;strokeColor=none;fontSize=14;" parent="8X_C14jSMLgq-pkSq3gb-99" vertex="1">
          <mxGeometry x="96" y="108" width="48" height="48" as="geometry" />
        </mxCell>
        <mxCell id="8X_C14jSMLgq-pkSq3gb-104" value="" style="fillColor=#ffffff;strokeColor=none;dashed=0;outlineConnect=0;html=1;labelPosition=center;verticalLabelPosition=bottom;verticalAlign=top;part=1;movable=0;resizable=0;rotatable=0;shape=mxgraph.ibm_cloud.ibm-cloud--virtual-server-vpc" parent="8X_C14jSMLgq-pkSq3gb-103" vertex="1">
          <mxGeometry width="24" height="24" relative="1" as="geometry">
            <mxPoint x="12" y="12" as="offset" />
          </mxGeometry>
        </mxCell>
        <mxCell id="8X_C14jSMLgq-pkSq3gb-105" value="" style="shape=rect;fillColor=#198038;aspect=fixed;resizable=0;labelPosition=center;verticalLabelPosition=bottom;align=center;verticalAlign=top;strokeColor=none;fontSize=14;" parent="8X_C14jSMLgq-pkSq3gb-99" vertex="1">
          <mxGeometry x="96" y="60" width="48" height="48" as="geometry" />
        </mxCell>
        <mxCell id="8X_C14jSMLgq-pkSq3gb-106" value="" style="fillColor=#ffffff;strokeColor=none;dashed=0;outlineConnect=0;html=1;labelPosition=center;verticalLabelPosition=bottom;verticalAlign=top;part=1;movable=0;resizable=0;rotatable=0;shape=mxgraph.ibm_cloud.ibm-cloud--virtual-server-vpc" parent="8X_C14jSMLgq-pkSq3gb-105" vertex="1">
          <mxGeometry width="24" height="24" relative="1" as="geometry">
            <mxPoint x="12" y="12" as="offset" />
          </mxGeometry>
        </mxCell>
        <mxCell id="O5wpfKrNEk4fxYHZwdj1-3" value="" style="html=1;labelBackgroundColor=#ffffff;jettySize=auto;orthogonalLoop=1;fontSize=14;rounded=0;jumpStyle=gap;edgeStyle=orthogonalEdgeStyle;startArrow=none;endArrow=block;strokeWidth=2;endFill=1;exitX=1;exitY=0;exitDx=0;exitDy=0;entryX=0;entryY=0.25;entryDx=0;entryDy=0;curved=1;" parent="PQe1bKcJ9zIPUSs3W7Ri-13" source="PQe1bKcJ9zIPUSs3W7Ri-9" target="8X_C14jSMLgq-pkSq3gb-103" edge="1">
          <mxGeometry width="48" height="48" relative="1" as="geometry">
            <mxPoint x="360" y="460" as="sourcePoint" />
            <mxPoint x="408" y="412" as="targetPoint" />
          </mxGeometry>
        </mxCell>
        <mxCell id="O5wpfKrNEk4fxYHZwdj1-10" value="http/80" style="edgeLabel;html=1;align=center;verticalAlign=middle;resizable=0;points=[];" parent="O5wpfKrNEk4fxYHZwdj1-3" vertex="1" connectable="0">
          <mxGeometry x="-0.3636" y="1" relative="1" as="geometry">
            <mxPoint x="-15" y="16" as="offset" />
          </mxGeometry>
        </mxCell>
        <mxCell id="PQe1bKcJ9zIPUSs3W7Ri-114" value="User" style="shape=ellipse;fillColor=#000000;aspect=fixed;resizable=0;labelPosition=center;verticalLabelPosition=bottom;align=center;verticalAlign=top;strokeColor=none;fontSize=14;" parent="PQe1bKcJ9zIPUSs3W7Ri-13" vertex="1">
          <mxGeometry x="-190" y="322" width="48" height="48" as="geometry" />
        </mxCell>
        <mxCell id="PQe1bKcJ9zIPUSs3W7Ri-115" value="" style="fillColor=#ffffff;strokeColor=none;dashed=0;outlineConnect=0;html=1;labelPosition=center;verticalLabelPosition=bottom;verticalAlign=top;part=1;movable=0;resizable=0;rotatable=0;shape=mxgraph.ibm_cloud.user" parent="PQe1bKcJ9zIPUSs3W7Ri-114" vertex="1">
          <mxGeometry width="24" height="24" relative="1" as="geometry">
            <mxPoint x="12" y="12" as="offset" />
          </mxGeometry>
        </mxCell>
        <mxCell id="O5wpfKrNEk4fxYHZwdj1-5" value="" style="html=1;labelBackgroundColor=#ffffff;jettySize=auto;orthogonalLoop=1;fontSize=14;rounded=0;jumpStyle=gap;edgeStyle=orthogonalEdgeStyle;startArrow=none;endArrow=block;strokeWidth=2;endFill=1;exitX=1;exitY=0.5;exitDx=0;exitDy=0;entryX=0;entryY=0.5;entryDx=0;entryDy=0;curved=1;" parent="PQe1bKcJ9zIPUSs3W7Ri-13" source="PQe1bKcJ9zIPUSs3W7Ri-114" target="PQe1bKcJ9zIPUSs3W7Ri-111" edge="1">
          <mxGeometry width="48" height="48" relative="1" as="geometry">
            <mxPoint x="-110" y="270" as="sourcePoint" />
            <mxPoint x="-62" y="222" as="targetPoint" />
          </mxGeometry>
        </mxCell>
        <mxCell id="O5wpfKrNEk4fxYHZwdj1-8" value="http/80" style="edgeLabel;html=1;align=center;verticalAlign=middle;resizable=0;points=[];" parent="O5wpfKrNEk4fxYHZwdj1-5" vertex="1" connectable="0">
          <mxGeometry x="0.2093" y="9" relative="1" as="geometry">
            <mxPoint as="offset" />
          </mxGeometry>
        </mxCell>
        <mxCell id="V01YUgwf4cVxbh6VhK7j-7" value="" style="endArrow=classic;html=1;rounded=0;exitX=1;exitY=0.5;exitDx=0;exitDy=0;entryX=0;entryY=0.75;entryDx=0;entryDy=0;curved=1;strokeWidth=2;" edge="1" parent="PQe1bKcJ9zIPUSs3W7Ri-13" source="PQe1bKcJ9zIPUSs3W7Ri-114" target="8X_C14jSMLgq-pkSq3gb-105">
          <mxGeometry width="50" height="50" relative="1" as="geometry">
            <mxPoint x="280" y="350" as="sourcePoint" />
            <mxPoint x="330" y="300" as="targetPoint" />
            <Array as="points">
              <mxPoint x="160" y="160" />
            </Array>
          </mxGeometry>
        </mxCell>
        <mxCell id="V01YUgwf4cVxbh6VhK7j-8" value="SSH 22" style="edgeLabel;html=1;align=center;verticalAlign=middle;resizable=0;points=[];" vertex="1" connectable="0" parent="V01YUgwf4cVxbh6VhK7j-7">
          <mxGeometry x="0.0082" y="-70" relative="1" as="geometry">
            <mxPoint as="offset" />
          </mxGeometry>
        </mxCell>
        <mxCell id="PQe1bKcJ9zIPUSs3W7Ri-6" value="VPC" style="shape=rect;fillColor=none;aspect=fixed;resizable=0;labelPosition=right;verticalLabelPosition=middle;align=left;verticalAlign=middle;strokeColor=none;part=1;spacingLeft=5;fontSize=14;" parent="PQe1bKcJ9zIPUSs3W7Ri-5" vertex="1">
          <mxGeometry width="48" height="48" relative="1" as="geometry" />
        </mxCell>
        <mxCell id="PQe1bKcJ9zIPUSs3W7Ri-7" value="" style="fillColor=#1192E8;shape=mxgraph.ibm_cloud.ibm-cloud--vpc;strokeColor=none;dashed=0;outlineConnect=0;html=1;labelPosition=center;verticalLabelPosition=bottom;verticalAlign=top;part=1;movable=0;resizable=0;rotatable=0;" parent="PQe1bKcJ9zIPUSs3W7Ri-6" vertex="1">
          <mxGeometry width="24" height="24" relative="1" as="geometry">
            <mxPoint x="12" y="12" as="offset" />
          </mxGeometry>
        </mxCell>
        <mxCell id="PQe1bKcJ9zIPUSs3W7Ri-8" value="" style="shape=rect;fillColor=#1192E8;aspect=fixed;resizable=0;labelPosition=right;verticalLabelPosition=middle;align=left;verticalAlign=middle;strokeColor=none;part=1;spacingLeft=5;fontSize=14;" parent="PQe1bKcJ9zIPUSs3W7Ri-5" vertex="1">
          <mxGeometry width="4" height="48" relative="1" as="geometry" />
        </mxCell>
        <mxCell id="PQe1bKcJ9zIPUSs3W7Ri-2" value="AWS" style="shape=rect;fillColor=none;aspect=fixed;resizable=0;labelPosition=right;verticalLabelPosition=middle;align=left;verticalAlign=middle;strokeColor=none;part=1;spacingLeft=5;fontSize=14;" parent="PQe1bKcJ9zIPUSs3W7Ri-1" vertex="1">
          <mxGeometry width="48" height="48" relative="1" as="geometry" />
        </mxCell>
        <mxCell id="PQe1bKcJ9zIPUSs3W7Ri-3" value="" style="fillColor=#1192E8;shape=mxgraph.ibm_cloud.ibm-cloud;strokeColor=none;dashed=0;outlineConnect=0;html=1;labelPosition=center;verticalLabelPosition=bottom;verticalAlign=top;part=1;movable=0;resizable=0;rotatable=0;" parent="PQe1bKcJ9zIPUSs3W7Ri-2" vertex="1">
          <mxGeometry width="24" height="24" relative="1" as="geometry">
            <mxPoint x="12" y="12" as="offset" />
          </mxGeometry>
        </mxCell>
        <mxCell id="PQe1bKcJ9zIPUSs3W7Ri-4" value="" style="shape=rect;fillColor=#1192E8;aspect=fixed;resizable=0;labelPosition=right;verticalLabelPosition=middle;align=left;verticalAlign=middle;strokeColor=none;part=1;spacingLeft=5;fontSize=14;" parent="PQe1bKcJ9zIPUSs3W7Ri-1" vertex="1">
          <mxGeometry width="4" height="48" relative="1" as="geometry" />
        </mxCell>
      </root>
    </mxGraphModel>
  </diagram>
</mxfile>
